<?xml version="1.0" encoding="utf-8"?>
<!-- Generator: Adobe Illustrator 25.3.1, SVG Export Plug-In . SVG Version: 6.00 Build 0)  -->
<svg version="1.1" id="圖層_1" xmlns="http://www.w3.org/2000/svg" xmlns:xlink="http://www.w3.org/1999/xlink" x="0px" y="0px"
	 viewBox="0 0 16 16" style="enable-background:new 0 0 16 16;" xml:space="preserve">
<style type="text/css">
	.st0{fill:#C7D8C6;}
</style>
<path class="st0" d="M16,8c0-4.4-3.6-8-8-8S0,3.6,0,8s3.6,8,8,8S16,12.4,16,8z M8.5,11.5C8.5,11.8,8.3,12,8,12
	c-0.3,0-0.5-0.2-0.5-0.5V5.7L5.4,7.9C5.2,8,4.8,8,4.6,7.9s-0.2-0.5,0-0.7l3-3C7.8,4,8.2,4,8.4,4.1c0,0,0,0,0,0l3,3
	c0.2,0.2,0.2,0.5,0,0.7s-0.5,0.2-0.7,0L8.5,5.7V11.5z"/>
</svg>
