<svg xmlns="http://www.w3.org/2000/svg" viewBox="0 0 851.28 649.57"><g id="圖層_2" data-name="圖層 2"><g id="レイヤー_1" data-name="レイヤー 1"><path d="M851.14,310.64c0-3.71-.56-5.83-4.59-7.16-6.35-2.1-12.42-5.09-18.53-7.87-2.35-1.06-4.4-1.72-6.92-.32s-4,.8-3.86-2.58c.21-7.3.76-14.69,0-21.91-2.68-24.59-17.31-40-39.85-47.79-12.63-4.35-26-6.59-39.09-9.57-26.77-6.12-53.58-12.06-80.36-18.13q-63.55-14.42-127.1-28.89-52.51-11.91-105-23.65c-3-.66-3.83-1.85-3.82-4.91.12-43.58,0-87.15.21-130.73,0-4-1.53-4.54-4.76-5.25C400.15-1.93,383.13.89,366,3c-30.74,3.79-61.5,7.43-92.25,11.16Q221.37,20.51,168.94,26.9q-49.38,6-98.78,11.84c-22,2.65-44.08,5.37-66.14,7.92C.87,47,0,48.24,0,51.37q.15,87.95.07,175.9,0,87.3-.08,174.59c0,3.48.86,5.57,4.16,7.12,6.2,2.91,12,8.22,18.31,9,6.17.73,12.82-3.22,19.36-4.69,3.63-.82,4.79-2.35,4.7-6.16-.29-12.13,0-24.27-.17-36.41-.07-3.89.72-4.35,4.23-2.64q56.44,27.42,113,54.6Q299.29,488.1,435,553.42c3.7,1.78,5,3.71,5,7.81-.21,22.22,0,44.45-.21,66.67,0,3.13,1,4.71,3.64,6.12q13.28,7.17,26.34,14.74a4.86,4.86,0,0,0,5.21.1c8.78-4.29,17.57-8.56,26.47-12.58,2.79-1.25,3.84-2.72,3.82-5.87-.15-23.54,0-47.08-.17-70.62,0-3.37,1.13-4.8,4.16-6Q656.05,497,802.77,440.06c4.64-1.8,4.65-1.79,4.66,3.1,0,16.09.14,32.17,0,48.25,0,2.94.69,4.64,3.69,5.37a20.17,20.17,0,0,1,5.65,2.3c9.1,5.6,17.12,4.18,26-1.62,6-3.93,8.54-7.4,8.49-14.86C850.88,425.28,851,368,851.14,310.64Zm-688.47-93.8c-11.65-4.32-21.19-11.59-29.12-21.05-1.34-1.6-6.38-4.81-3.13-9,.82-.34,11.58-6.13,12.25-6.39,39.82-15.19,133.69-36.27,138.33-37.19,38.32-7.55,59.26-5.24,95.31,7.47,18.09,6.38,49.33,25.92,47.77,31.37-1.07,1.5-2.51,1.92-3.79,2.54-20.52,7.42-44.48,14-57.3,18.42-21.8,7.49-90.77,18.81-134,30.48-6.81,1.83-13.3.89-20.05-1.4C192.05,226.39,179.37,223,162.67,216.84Zm618.59,89.64C719,326.2,678.32,340.78,616,360.6q-87,27.66-174,55.18c-2.41.76-2,2.06-2,3.52-.07,13.75-.28,90.84-.26,98.95a.89.89,0,0,1,0,1.39c-.57.78-1.2.48-1.89.16-18.48-8.61-212.54-98-270.74-124.75-2.34-1.08-2.81-2.57-2.78-4.78.1-7,1.25-79.35,1.41-79.71,1.42-17.13,7.83-31.65,22.28-41.79a84,84,0,0,1,28.38-12.39c37.56-9.32,215.76-51.94,281.11-67.21,10.86-2.53,20.15-6.3,33.28-2.94,1.4.35,145.88,31.73,213.55,48.21,20.22,4.93,34.19,17.93,39.62,38.61,2.35,8.95,1.36,18.3,1.68,27.48C785.83,304.18,784.58,305.43,781.26,306.48Z" style="fill:#231815"/></g></g></svg>