<svg xmlns="http://www.w3.org/2000/svg" viewBox="0 0 10.75 7.29"><g id="圖層_2" data-name="圖層 2"><g id="圖層_1-2" data-name="圖層 1"><path d="M10.61,2.27a.48.48,0,0,0-.07-.74,9.48,9.48,0,0,0-10.33,0,.47.47,0,0,0-.13.66.27.27,0,0,0,.07.08.53.53,0,0,0,.65.07,8.48,8.48,0,0,1,9.15,0A.54.54,0,0,0,10.61,2.27ZM8.42,4.45a.46.46,0,0,0-.1-.75,6.55,6.55,0,0,0-5.89,0,.47.47,0,0,0-.1.75l0,0A.53.53,0,0,0,3,4.56a5.51,5.51,0,0,1,4.84,0,.53.53,0,0,0,.61-.09Zm-2,2a.42.42,0,0,0,0-.66,2,2,0,0,0-2,0,.41.41,0,0,0,0,.66l.7.71a.51.51,0,0,0,.71,0h0l.71-.71Z" style="fill:#bab9a9"/></g></g></svg>